<!-- icon666.com - MILLIONS vector ICONS FREE --><svg id="icons" viewBox="0 0 60 60" xmlns="http://www.w3.org/2000/svg"><path d="m18.93 18h-3.93a5.006 5.006 0 0 1 -5-5v-4a4 4 0 0 1 4-4h4a1 1 0 0 1 0 2h-4a2 2 0 0 0 -2 2v4a3 3 0 0 0 3 3h3.93a1 1 0 0 1 0 2z" fill="#b0ccdd"></path><path d="m45 18h-3.93a1 1 0 0 1 0-2h3.93a3 3 0 0 0 3-3v-4a2 2 0 0 0 -2-2h-4a1 1 0 0 1 0-2h4a4 4 0 0 1 4 4v4a5.006 5.006 0 0 1 -5 5z" fill="#b0ccdd"></path><path d="m28 23h4v7h-4z" fill="#e3c84c"></path><path d="m16 4h28a0 0 0 0 1 0 0v7a14 14 0 0 1 -14 14 14 14 0 0 1 -14-14v-7a0 0 0 0 1 0 0z" fill="#fde05e"></path><rect fill="#e3c84c" height="4" rx="2" width="32" x="14" y="1"></rect><path d="m30.848 9.547.723 1.524 1.619.244a.993.993 0 0 1 .524 1.675l-1.172 1.186.277 1.674a.953.953 0 0 1 -1.371 1.035l-1.448-.791-1.448.791a.953.953 0 0 1 -1.371-1.035l.277-1.674-1.172-1.186a.993.993 0 0 1 .524-1.675l1.619-.244.723-1.524a.931.931 0 0 1 1.696 0z" fill="#e3c84c"></path><path d="m30 29a3 3 0 0 1 3 3v2a0 0 0 0 1 0 0h-6a0 0 0 0 1 0 0v-2a3 3 0 0 1 3-3z" fill="#bfdbf0"></path><path d="m37 33v-2a2.006 2.006 0 0 1 2-2h4a4 4 0 0 1 4 4v1.76z" fill="#2d629b"></path><path d="m13 34.76v-1.76a4 4 0 0 1 4-4h4a2.006 2.006 0 0 1 2 2v2z" fill="#2d629b"></path><path d="m50.988 52.81a5.814 5.814 0 0 1 -4.119 5.94 5.733 5.733 0 0 1 -1.669.25 5.8 5.8 0 0 1 -5.61-4.41l-1.021-4.1a.987.987 0 0 0 -1.271-.706 3.957 3.957 0 0 1 -1.298.216 4 4 0 0 1 -3.914-3.171 1.013 1.013 0 0 0 -.981-.829h-2.205a1.013 1.013 0 0 0 -.981.829 4 4 0 0 1 -3.919 3.171 3.957 3.957 0 0 1 -1.3-.217.987.987 0 0 0 -1.271.706l-1.021 4.1a5.8 5.8 0 0 1 -5.608 4.411 5.733 5.733 0 0 1 -1.67-.25 5.814 5.814 0 0 1 -4.119-5.94l1-12.21a8 8 0 0 1 7.989-7.6h24a8 8 0 0 1 7.989 7.6z" fill="#3778c6"></path><g fill="#2d629b"><circle cx="22.998" cy="44" r="2"></circle><circle cx="36.998" cy="44" r="2"></circle><path d="m18 39h-1v-1a1 1 0 0 0 -2 0v1h-1a1 1 0 1 0 0 2h1v1a1 1 0 1 0 2 0v-1h1a1 1 0 1 0 0-2z"></path><path d="m46 39h-1v-1a1 1 0 0 0 -2 0v1h-1a1 1 0 1 0 0 2h1v1a1 1 0 0 0 2 0v-1h1a1 1 0 0 0 0-2z"></path></g><path d="m28 36h-3a1 1 0 0 0 0 2h3a1 1 0 1 0 0-2z" fill="#4b95ff"></path><path d="m35 36h-3a1 1 0 0 0 0 2h3a1 1 0 0 0 0-2z" fill="#4b95ff"></path><path d="m14.574 53.963a.819.819 0 0 1 -.574-.821l.414-5.06a1 1 0 0 0 -1.994-.164l-.42 5.082a2.84 2.84 0 0 0 2 2.882.979.979 0 0 0 .285.042 1 1 0 0 0 .286-1.959z" fill="#4b95ff"></path></svg>